<svg xmlns="http://www.w3.org/2000/svg" width="316" height="80" viewBox="0 0 316 80">
  <metadata><?xpacket begin="﻿" id="W5M0MpCehiHzreSzNTczkc9d"?>
<x:xmpmeta xmlns:x="adobe:ns:meta/" x:xmptk="Adobe XMP Core 5.6-c140 79.160451, 2017/05/06-01:08:21        ">
   <rdf:RDF xmlns:rdf="http://www.w3.org/1999/02/22-rdf-syntax-ns#">
      <rdf:Description rdf:about=""/>
   </rdf:RDF>
</x:xmpmeta>
                                                                                                    
                                                                                                    
                                                                                                    
                                                                                                    
                                                                                                    
                                                                                                    
                                                                                                    
                                                                                                    
                                                                                                    
                                                                                                    
                                                                                                    
                                                                                                    
                                                                                                    
                                                                                                    
                                                                                                    
                                                                                                    
                                                                                                    
                                                                                                    
                                                                                                    
                                                                                                    
                           
<?xpacket end="w"?></metadata>
<defs>
    <style>
      .cls-1 {
        fill: #a27e52;
        fill-rule: evenodd;
      }
    </style>
  </defs>
  <path class="cls-1" d="M15.622,58.3a2.531,2.531,0,0,1-2.365,1.581c-0.586,0-1.779-.239-3.6-0.5a41.793,41.793,0,0,0-1.15,7.32c-0.239,2.252-.152,3.377-1.953,3.94l2.886,0.585-0.152.433a29.462,29.462,0,0,0-3.1-.152,30.165,30.165,0,0,0-3.124.152l0.173-.433c1.649-.174,2.3-0.456,2.712-1.581a26.106,26.106,0,0,0,1-6.172c0.13-1.689.087-2.75,0.39-3.2a3.742,3.742,0,0,1,1.627-1A30.438,30.438,0,0,0,5.468,59c-2.777,0-4.036.8-4.036,2.837A3.3,3.3,0,0,0,2.148,64l-0.087.108H1.953A1.71,1.71,0,0,1,0,62.309c0-1.126.824-2.316,2.451-3.464a7.194,7.194,0,0,1,4.274-1.061c3.038,0,5.533.736,7.355,0.736a1.99,1.99,0,0,0,1.345-.39Zm3.624,11.022c0,0.346.065,0.541,0.282,0.541a2.077,2.077,0,0,0,.976-0.8l0.326,0.3c-1.258,1.56-2.256,2.36-2.994,2.36-0.455,0-.672-0.346-0.672-1.017a23.954,23.954,0,0,1,.542-3.854c-2.343,3.291-4.556,4.871-5.576,4.871a0.648,0.648,0,0,1-.586-0.8c0-1.84,1.02-4.569,1.02-6.756,0-.346-0.044-0.477-0.26-0.477a2.3,2.3,0,0,0-.955.758l-0.3-.281c1.323-1.624,2.5-2.317,3.081-2.317a0.6,0.6,0,0,1,.586.736c0,2.339-1.02,5.089-1.02,6.8,0,0.369.043,0.542,0.3,0.542,0.673,0,3.732-2.685,4.426-7.384a18.881,18.881,0,0,1,2.083-.823A44.349,44.349,0,0,0,19.246,69.326Zm7.811-5.349c-0.846,0-2.69,2.426-3.363,7.059-0.737.259-1.41,0.563-2.083,0.823A53.121,53.121,0,0,0,22.8,64.194c0-.347-0.108-0.542-0.325-0.542a2.473,2.473,0,0,0-1.085.845l-0.325-.3c1.476-1.6,2.582-2.382,3.319-2.382,0.412,0,.586.26,0.586,0.866a25.307,25.307,0,0,1-.564,3.746l0.044,0.022c1.583-3.054,3.038-4.634,3.905-4.634a0.868,0.868,0,0,1,.781,1.017,2.548,2.548,0,0,1-1.345,1.776A0.865,0.865,0,0,0,27.057,63.977Zm3.132,0.217c0-.347-0.108-0.542-0.325-0.542a2.473,2.473,0,0,0-1.085.845l-0.325-.3c1.476-1.6,2.582-2.426,3.32-2.426,0.412,0,.586.3,0.586,0.91a28.979,28.979,0,0,1-.607,4.028c2.5-3.422,4.882-4.938,5.641-4.938A0.546,0.546,0,0,1,38,62.4c0,1.8-1.02,4.656-1.02,7.016,0,0.3.108,0.433,0.217,0.433a1.7,1.7,0,0,0,.976-0.736L38.5,69.39c-1.237,1.559-2.191,2.339-2.907,2.339-0.5,0-.716-0.346-0.716-1.083,0-2.144.933-4.763,0.933-6.648,0-.281-0.108-0.433-0.282-0.433-0.391,0-1.28.736-2.408,2.252a10.185,10.185,0,0,0-2,5.176c-0.759.281-1.475,0.584-2.126,0.866A53.121,53.121,0,0,0,30.189,64.194Zm14.927-8.337c-2.191,0-2.43,3.184-3.558,10.2,2.191-2.923,4.188-4.309,5.229-4.309,0.759,0,1.107.607,1.107,1.819A8.262,8.262,0,0,1,45.311,69.5a6.984,6.984,0,0,1-5.055,2.165,6.439,6.439,0,0,1-1.562-.195c1.172-2.967.824-7.146,2.083-11.2,1.15-3.725,3.818-5.673,5.554-5.673a0.914,0.914,0,0,1,1.106.866,1.748,1.748,0,0,1-.39.974A4.631,4.631,0,0,0,45.116,55.857ZM42.187,70.43a2.653,2.653,0,0,0,2.777-1.992,11.772,11.772,0,0,0,.694-4.049c0-.8-0.108-1.169-0.477-1.169-0.412,0-1.15.607-2.1,1.862a9.569,9.569,0,0,0-2.018,5.2A5.769,5.769,0,0,0,42.187,70.43Zm7.963-1.9c0,1.1.412,1.667,1.15,1.667q1.041,0,2.538-1.689l0.369,0.347c-1.606,2.034-3.471,2.987-4.513,2.987-1.107,0-1.714-.736-1.714-2.079a10.2,10.2,0,0,1,1.8-5.673,6.132,6.132,0,0,1,3.84-2.339,1.209,1.209,0,0,1,1.346,1.3c0,1.256-1.736,2.967-4.578,3.487A10.679,10.679,0,0,0,50.15,68.525Zm2.8-4.764a0.7,0.7,0,0,0-.673-0.866c-0.738,0-1.389,1.017-1.779,3.053A2.255,2.255,0,0,0,52.949,63.76Zm7.572,0.217c-0.846,0-2.69,2.426-3.363,7.059-0.737.259-1.41,0.563-2.083,0.823a53.114,53.114,0,0,0,1.194-7.666c0-.347-0.108-0.542-0.325-0.542a2.472,2.472,0,0,0-1.085.845l-0.326-.3c1.476-1.6,2.582-2.382,3.32-2.382,0.412,0,.586.26,0.586,0.866a25.3,25.3,0,0,1-.564,3.746l0.044,0.022c1.584-3.054,3.038-4.634,3.905-4.634a0.868,0.868,0,0,1,.781,1.017,2.548,2.548,0,0,1-1.345,1.776A0.865,0.865,0,0,0,60.521,63.977Zm7.585,0c-0.846,0-2.69,2.426-3.363,7.059-0.737.259-1.41,0.563-2.083,0.823a53.112,53.112,0,0,0,1.194-7.666c0-.347-0.108-0.542-0.325-0.542a2.473,2.473,0,0,0-1.085.845l-0.325-.3c1.476-1.6,2.582-2.382,3.32-2.382,0.412,0,.586.26,0.586,0.866a25.315,25.315,0,0,1-.564,3.746L65.5,66.445c1.584-3.054,3.038-4.634,3.905-4.634a0.868,0.868,0,0,1,.781,1.017,2.548,2.548,0,0,1-1.345,1.776A0.864,0.864,0,0,0,68.106,63.977ZM64.679,77.749c1.909,0,3.927-1.624,6.292-4.873V72.011c0-5.349-.39-8.034-1.15-8.034a1.664,1.664,0,0,0-1.063.888l-0.347-.238c1.128-1.8,1.888-2.793,2.647-2.793,1.3,0,1.692,2.75,1.692,8.293V70.6c2.321-3.162,3.385-5.457,3.385-6.583,0-.368-0.152-0.563-0.39-0.563a1.283,1.283,0,0,0-.8.455l-0.282-.281c1.02-1.213,1.779-1.8,2.343-1.8a0.966,0.966,0,0,1,.846,1.125c0,1.452-1.8,4.289-5.164,8.727-3.754,4.959-6.118,7.623-7.963,7.623a1.446,1.446,0,0,1-1.562-1.559,3.18,3.18,0,0,1,.044-0.433A2.262,2.262,0,0,0,64.679,77.749Zm19.81-11.867c0,3.421.911,5.045,3.146,5.045,2.712,0,4.513-2.772,4.513-7.471,0-2.9-1-4.44-2.56-4.44-1.258,0-2.083.975-2.083,2.578a4.37,4.37,0,0,0,.39,1.883l-0.108.13A1.665,1.665,0,0,1,86.159,61.9c0-1.061.629-1.97,1.887-2.944a5.1,5.1,0,0,1,2.908-1.169c2.04,0,3.537,1.84,3.537,4.981a9.592,9.592,0,0,1-1.953,5.977,7.777,7.777,0,0,1-6.1,3.1c-2.8,0-4.3-1.688-4.3-4.893a10.373,10.373,0,0,1,2.69-6.93,5.007,5.007,0,0,1,2.582-1.95,0.6,0.6,0,0,1,.434.217C85.573,59.776,84.489,62.266,84.489,65.883Zm11.782-1.689c0-.347-0.108-0.542-0.325-0.542a2.473,2.473,0,0,0-1.085.845l-0.325-.3c1.476-1.6,2.582-2.426,3.32-2.426,0.412,0,.586.3,0.586,0.91a28.972,28.972,0,0,1-.607,4.028c2.5-3.422,4.881-4.938,5.641-4.938a0.546,0.546,0,0,1,.607.628c0,1.8-1.019,4.656-1.019,7.016,0,0.3.108,0.433,0.217,0.433a1.7,1.7,0,0,0,.976-0.736l0.325,0.281c-1.237,1.559-2.191,2.339-2.907,2.339-0.5,0-.716-0.346-0.716-1.083,0-2.144.933-4.763,0.933-6.648,0-.281-0.108-0.433-0.282-0.433-0.391,0-1.28.736-2.408,2.252a10.186,10.186,0,0,0-2,5.176c-0.759.281-1.475,0.584-2.126,0.866A53.121,53.121,0,0,0,96.271,64.194Zm27.056-5.89a2.532,2.532,0,0,1-2.365,1.581c-0.586,0-1.78-.239-3.6-0.5a41.837,41.837,0,0,0-1.15,7.32c-0.239,2.252-.152,3.377-1.953,3.94l2.886,0.585-0.152.433a29.469,29.469,0,0,0-3.1-.152,30.179,30.179,0,0,0-3.124.152l0.174-.433c1.649-.174,2.3-0.456,2.712-1.581a26.112,26.112,0,0,0,1-6.172c0.13-1.689.087-2.75,0.391-3.2a3.738,3.738,0,0,1,1.627-1A30.456,30.456,0,0,0,113.173,59c-2.778,0-4.036.8-4.036,2.837A3.3,3.3,0,0,0,109.853,64l-0.087.108h-0.108a1.71,1.71,0,0,1-1.953-1.8c0-1.126.825-2.316,2.452-3.464a7.192,7.192,0,0,1,4.274-1.061c3.037,0,5.533.736,7.355,0.736a1.989,1.989,0,0,0,1.345-.39ZM121.179,59c1.128-2.664,3.537-4.4,5.077-4.4a0.943,0.943,0,0,1,1.128.866,1.606,1.606,0,0,1-.39.974,4.307,4.307,0,0,0-1.909-.584c-2.214,0-2.452,3.292-3.689,10.849,2.5-3.422,4.882-4.981,5.641-4.981a0.593,0.593,0,0,1,.629.671c0,1.8-1.019,4.656-1.019,7.016,0,0.3.087,0.433,0.195,0.433a1.7,1.7,0,0,0,.976-0.736l0.347,0.281c-1.236,1.559-2.191,2.339-2.907,2.339-0.5,0-.738-0.346-0.738-1.083,0-2.144.933-4.763,0.933-6.648,0-.281-0.108-0.433-0.282-0.433-0.39,0-1.28.736-2.408,2.252a10.186,10.186,0,0,0-2,5.176c-0.759.281-1.476,0.584-2.127,0.866C119.834,66.359,119.942,61.92,121.179,59Zm9.482,9.529c0,1.1.412,1.667,1.15,1.667q1.041,0,2.538-1.689l0.369,0.347c-1.6,2.034-3.471,2.987-4.512,2.987-1.107,0-1.714-.736-1.714-2.079a10.2,10.2,0,0,1,1.8-5.673,6.133,6.133,0,0,1,3.84-2.339,1.209,1.209,0,0,1,1.346,1.3c0,1.256-1.736,2.967-4.578,3.487A10.673,10.673,0,0,0,130.661,68.525Zm2.8-4.764a0.7,0.7,0,0,0-.673-0.866c-0.737,0-1.388,1.017-1.779,3.053A2.255,2.255,0,0,0,133.46,63.76Zm13.1,2.23,0.152-.433c0.911,0.087,1.8.151,2.69,0.151s1.779-.064,2.669-0.151l-0.152.433-1.475.325c-0.825,4.547-.889,7.968-2.343,10.156A7.947,7.947,0,0,1,141.314,80c-1.3,0-2-.454-2-1.235a2.2,2.2,0,0,1,.434-1.083l0.109,0.022a4.6,4.6,0,0,0,3.233,1.169,3.454,3.454,0,0,0,2.885-1.212c0.912-1.1,1.367-3.573,1.866-7.405a5.339,5.339,0,0,1-3.905,1.515c-2.929,0-4.687-1.84-4.687-5a9.475,9.475,0,0,1,2.713-6.6,8.207,8.207,0,0,1,5.857-2.382c2.018,0,3.125.541,3.125,1.386,0,0.476-.477.931-1.411,1.559l-0.173-.043a2.378,2.378,0,0,0-2.647-2.078c-2.929,0-5.12,2.88-5.12,7.471,0,2.923,1.366,4.612,3.645,4.612,2.1,0,2.972-1.386,3.037-4.374ZM157.8,63.977c-0.845,0-2.69,2.426-3.362,7.059-0.738.259-1.411,0.563-2.083,0.823a53.174,53.174,0,0,0,1.193-7.666c0-.347-0.108-0.542-0.325-0.542a2.467,2.467,0,0,0-1.085.845l-0.326-.3c1.476-1.6,2.582-2.382,3.32-2.382,0.412,0,.586.26,0.586,0.866a25.3,25.3,0,0,1-.564,3.746l0.043,0.022c1.584-3.054,3.038-4.634,3.906-4.634a0.868,0.868,0,0,1,.78,1.017,2.547,2.547,0,0,1-1.345,1.776A0.865,0.865,0,0,0,157.8,63.977Zm2.385,4.548c0,1.1.413,1.667,1.151,1.667q1.039,0,2.537-1.689l0.37,0.347c-1.606,2.034-3.472,2.987-4.513,2.987-1.107,0-1.714-.736-1.714-2.079a10.2,10.2,0,0,1,1.8-5.673,6.135,6.135,0,0,1,3.84-2.339,1.209,1.209,0,0,1,1.346,1.3c0,1.256-1.736,2.967-4.578,3.487A10.673,10.673,0,0,0,160.189,68.525Zm2.8-4.764a0.7,0.7,0,0,0-.672-0.866c-0.738,0-1.389,1.017-1.78,3.053A2.255,2.255,0,0,0,162.988,63.76Zm3.775,4.764c0,1.1.412,1.667,1.15,1.667q1.042,0,2.539-1.689l0.368,0.347c-1.6,2.034-3.471,2.987-4.512,2.987-1.107,0-1.714-.736-1.714-2.079a10.2,10.2,0,0,1,1.8-5.673,6.128,6.128,0,0,1,3.84-2.339,1.209,1.209,0,0,1,1.345,1.3c0,1.256-1.736,2.967-4.578,3.487A10.673,10.673,0,0,0,166.763,68.525Zm2.8-4.764a0.7,0.7,0,0,0-.674-0.866c-0.738,0-1.388,1.017-1.778,3.053A2.256,2.256,0,0,0,169.563,63.76Zm3.319,0.433c0-.347-0.108-0.542-0.325-0.542a2.472,2.472,0,0,0-1.085.845l-0.325-.3c1.475-1.6,2.581-2.426,3.319-2.426,0.413,0,.586.3,0.586,0.91a28.932,28.932,0,0,1-.607,4.028c2.494-3.422,4.881-4.938,5.641-4.938a0.546,0.546,0,0,1,.607.628c0,1.8-1.019,4.656-1.019,7.016,0,0.3.108,0.433,0.217,0.433a1.7,1.7,0,0,0,.976-0.736l0.325,0.281c-1.237,1.559-2.192,2.339-2.907,2.339-0.5,0-.716-0.346-0.716-1.083,0-2.144.933-4.763,0.933-6.648,0-.281-0.108-0.433-0.282-0.433-0.391,0-1.281.736-2.408,2.252a10.187,10.187,0,0,0-2,5.176c-0.759.281-1.475,0.584-2.126,0.866A53.008,53.008,0,0,0,172.882,64.194Zm21.806-3.487a2.2,2.2,0,0,0-2.452-2.014c-2.712,0-4.752,2.88-4.752,7.428,0,2.923,1.368,4.569,3.711,4.569a6.733,6.733,0,0,0,3.623-1.148l-0.065.8a9.213,9.213,0,0,1-5.142,1.494c-2.843,0-4.47-1.732-4.47-4.937a9.628,9.628,0,0,1,2.582-6.626,7.881,7.881,0,0,1,5.75-2.49c1.779,0,2.777.563,2.777,1.342,0,0.542-.521.932-1.432,1.625Zm8.7,3.79a7.776,7.776,0,0,1-1.605,4.807,6.2,6.2,0,0,1-4.232,2.468c-1.431,0-2.147-.888-2.147-2.685a7.777,7.777,0,0,1,2.126-5.565,6.01,6.01,0,0,1,3.688-1.776C202.651,61.747,203.389,62.678,203.389,64.5Zm-3.559-1.668c-1.388,0-2.321,2.079-2.321,5.565,0,1.494.477,2.252,1.389,2.252,1.366,0,2.343-2.1,2.343-5.478C201.241,63.631,200.763,62.829,199.83,62.829Zm5.447,1.365c0-.347-0.108-0.542-0.325-0.542a2.472,2.472,0,0,0-1.085.845l-0.325-.3c1.474-1.6,2.581-2.426,3.319-2.426,0.413,0,.585.3,0.585,0.91a28.857,28.857,0,0,1-.606,4.028c2.494-3.422,4.881-4.938,5.64-4.938a0.547,0.547,0,0,1,.608.628c0,1.8-1.02,4.656-1.02,7.016,0,0.3.108,0.433,0.216,0.433a1.7,1.7,0,0,0,.978-0.736l0.325,0.281c-1.237,1.559-2.192,2.339-2.908,2.339-0.5,0-.715-0.346-0.715-1.083,0-2.144.933-4.763,0.933-6.648,0-.281-0.11-0.433-0.282-0.433-0.391,0-1.281.736-2.409,2.252a10.2,10.2,0,0,0-2,5.176c-0.759.281-1.475,0.584-2.126,0.866A53.008,53.008,0,0,0,205.277,64.194Zm9.373,7.557c-0.521,0-.78-0.5-0.78-1.451,0-4.916,2.6-8.078,6.769-8.467,0.933-4.635,3.688-7.211,5.858-7.211a0.823,0.823,0,0,1,.933.845,1.67,1.67,0,0,1-.369,1,4.217,4.217,0,0,0-1.8-.584c-1.649,0-2,1.841-2.669,5.544a68.71,68.71,0,0,0-1.128,7.839c0,0.412.087,0.607,0.282,0.607a1.756,1.756,0,0,0,.825-0.693l0.346,0.3c-1.3,1.581-2.407,2.274-2.95,2.274-0.412,0-.673-0.325-0.673-1a24.037,24.037,0,0,1,.543-3.681C217.731,70.235,215.584,71.751,214.65,71.751Zm4.362-8.684a2.015,2.015,0,0,0-2.062,1.386,13.9,13.9,0,0,0-1.063,5.024c0,0.456.13,0.672,0.412,0.672,0.608,0,3.406-2.513,4.144-7.016C219.792,63.132,219.337,63.067,219.012,63.067ZM231.14,64.5a7.771,7.771,0,0,1-1.606,4.807,6.194,6.194,0,0,1-4.23,2.468c-1.433,0-2.148-.888-2.148-2.685a7.777,7.777,0,0,1,2.126-5.565,6.01,6.01,0,0,1,3.688-1.776C230.4,61.747,231.14,62.678,231.14,64.5Zm-3.559-1.668c-1.388,0-2.321,2.079-2.321,5.565,0,1.494.478,2.252,1.388,2.252,1.367,0,2.344-2.1,2.344-5.478C228.992,63.631,228.515,62.829,227.581,62.829Zm18.379,8.055,1.735,0.347-0.151.454c-1.28-.108-2.235-0.108-2.843-0.108-0.738,0-1.735.022-2.994,0.108l0.174-.454,1.648-.347c-0.108-1.082-.346-2.533-0.693-4.395h-4.925a25.876,25.876,0,0,0-1.888,4.395l1.757,0.347-0.152.454a24.187,24.187,0,0,0-2.473-.108,26.292,26.292,0,0,0-2.669.108l0.152-.454,1.6-.347c4.73-7.6,6.987-11.931,6.987-12.754a0.129,0.129,0,0,0-.022-0.087l1.953-.541A83.38,83.38,0,0,0,245.96,70.884Zm-7.747-5.045h4.47c-0.368-1.97-.825-3.963-1.3-5.977C239.927,62.417,238.908,64.41,238.213,65.839Zm12.693-3.074a1.066,1.066,0,0,0-1.127,1.061c0,0.714.563,1.234,1.257,2.078a3.843,3.843,0,0,1,1.107,2.425c0,1.732-1.866,3.378-3.97,3.378-1.042,0-1.606-.455-1.606-0.975a1.886,1.886,0,0,1,.933-1.169,2.25,2.25,0,0,0,1.866,1.212A1.147,1.147,0,0,0,250.6,69.65a2.785,2.785,0,0,0-.932-1.689c-0.825-1-1.454-1.732-1.454-2.88,0-1.775,1.888-3.292,3.84-3.292,0.89,0,1.476.412,1.476,0.91a1.482,1.482,0,0,1-1.063,1.1A1.942,1.942,0,0,0,250.906,62.765Zm5.663,0a1.066,1.066,0,0,0-1.128,1.061c0,0.714.564,1.234,1.258,2.078a3.843,3.843,0,0,1,1.107,2.425c0,1.732-1.866,3.378-3.97,3.378-1.042,0-1.606-.455-1.606-0.975a1.886,1.886,0,0,1,.933-1.169,2.249,2.249,0,0,0,1.866,1.212,1.147,1.147,0,0,0,1.236-1.126,2.785,2.785,0,0,0-.932-1.689c-0.825-1-1.454-1.732-1.454-2.88,0-1.775,1.888-3.292,3.84-3.292,0.89,0,1.476.412,1.476,0.91a1.484,1.484,0,0,1-1.063,1.1A1.942,1.942,0,0,0,256.569,62.765ZM266.636,64.5a7.77,7.77,0,0,1-1.605,4.807,6.2,6.2,0,0,1-4.231,2.468c-1.432,0-2.148-.888-2.148-2.685a7.778,7.778,0,0,1,2.127-5.565,6.008,6.008,0,0,1,3.688-1.776C265.9,61.747,266.636,62.678,266.636,64.5Zm-3.558-1.668c-1.388,0-2.322,2.079-2.322,5.565,0,1.494.478,2.252,1.389,2.252,1.367,0,2.343-2.1,2.343-5.478C264.488,63.631,264.011,62.829,263.078,62.829Zm7.833,0.217c-1,0-1.974,2.383-1.974,5.327q0,1.818,1.172,1.819c0.672,0,1.562-.563,2.56-1.711l0.369,0.369c-1.67,2.013-3.471,2.944-4.557,2.944-1.171,0-1.691-.692-1.691-2.23a9.281,9.281,0,0,1,1.583-5.262,6.547,6.547,0,0,1,4.165-2.555,1.126,1.126,0,0,1,1.28.931c0,0.368-.476.845-1.41,1.3A2.117,2.117,0,0,0,270.911,63.046Zm6.813,6.106c-1.323,1.776-2.494,2.642-3.168,2.642-0.411,0-.585-0.282-0.585-0.866,0-2.144,1.042-4.764,1.042-6.756,0-.238-0.087-0.369-0.217-0.369a1.9,1.9,0,0,0-1.021.758l-0.325-.325c1.432-1.688,2.539-2.469,3.1-2.469a0.613,0.613,0,0,1,.607.758c0,0.477-.217,1.625-0.52,3.444-0.326,1.927-.478,3.01-0.478,3.226,0,0.3.087,0.433,0.282,0.433a1.769,1.769,0,0,0,.933-0.758ZM277.7,58.542a1.464,1.464,0,0,1-1.324,1.6,0.94,0.94,0,0,1-.954-1.018,1.484,1.484,0,0,1,1.323-1.537A0.936,0.936,0,0,1,277.7,58.542Zm1.15,13.21c-0.521,0-.781-0.5-0.781-1.451,0-5.132,2.972-8.467,7.507-8.467h0.455c0.217,0,.543,0,0.977-0.022a31.671,31.671,0,0,0-1.345,7.448c0,0.412.087,0.607,0.281,0.607a1.751,1.751,0,0,0,.825-0.693l0.347,0.3c-1.3,1.581-2.408,2.274-2.95,2.274-0.412,0-.673-0.325-0.673-1a24,24,0,0,1,.542-3.681C281.934,70.235,279.786,71.751,278.853,71.751Zm4.383-8.705a2.063,2.063,0,0,0-2.105,1.451,14.212,14.212,0,0,0-1.041,4.916c0,0.476.13,0.736,0.39,0.736,0.629,0,3.364-2.513,4.3-7.016C284.147,63.132,283.648,63.046,283.236,63.046Zm8.961-3.2a9.484,9.484,0,0,0-.781,2.534c0.738,0.065,1.28.108,1.627,0.108a2.119,2.119,0,0,0,1.28-.3L294.5,62.4a3.283,3.283,0,0,1-2.712,1.083h-0.26a3.034,3.034,0,0,0-.3-0.022,36.72,36.72,0,0,0-.8,5.76c0,0.39.066,0.541,0.3,0.541a1.911,1.911,0,0,0,1.042-.823l0.347,0.282c-1.345,1.711-2.474,2.534-3.255,2.534-0.433,0-.65-0.282-0.65-0.867a63.63,63.63,0,0,1,1.106-7.492,4.436,4.436,0,0,0-1.953.347l-0.108-.282a19.155,19.155,0,0,0,4.773-3.811Zm5.272,9.311c-1.324,1.776-2.5,2.642-3.169,2.642-0.411,0-.585-0.282-0.585-0.866,0-2.144,1.042-4.764,1.042-6.756,0-.238-0.087-0.369-0.217-0.369a1.894,1.894,0,0,0-1.02.758l-0.326-.325c1.432-1.688,2.539-2.469,3.1-2.469a0.613,0.613,0,0,1,.608.758c0,0.477-.217,1.625-0.521,3.444-0.326,1.927-.478,3.01-0.478,3.226,0,0.3.087,0.433,0.282,0.433a1.77,1.77,0,0,0,.934-0.758Zm-0.022-10.611a1.464,1.464,0,0,1-1.323,1.6,0.94,0.94,0,0,1-.955-1.018,1.484,1.484,0,0,1,1.323-1.537A0.935,0.935,0,0,1,297.447,58.542ZM305.8,64.5A7.77,7.77,0,0,1,304.2,69.3a6.2,6.2,0,0,1-4.231,2.468c-1.432,0-2.148-.888-2.148-2.685a7.778,7.778,0,0,1,2.127-5.565,6.008,6.008,0,0,1,3.688-1.776C305.062,61.747,305.8,62.678,305.8,64.5Zm-3.558-1.668c-1.388,0-2.322,2.079-2.322,5.565,0,1.494.478,2.252,1.389,2.252,1.367,0,2.343-2.1,2.343-5.478C303.652,63.631,303.175,62.829,302.242,62.829Zm5.447,1.365c0-.347-0.109-0.542-0.325-0.542a2.472,2.472,0,0,0-1.085.845l-0.326-.3c1.475-1.6,2.582-2.426,3.32-2.426,0.412,0,.585.3,0.585,0.91a29.025,29.025,0,0,1-.606,4.028c2.494-3.422,4.881-4.938,5.64-4.938a0.547,0.547,0,0,1,.608.628c0,1.8-1.021,4.656-1.021,7.016,0,0.3.109,0.433,0.217,0.433a1.7,1.7,0,0,0,.978-0.736L316,69.39c-1.237,1.559-2.192,2.339-2.908,2.339-0.5,0-.715-0.346-0.715-1.083,0-2.144.933-4.763,0.933-6.648,0-.281-0.11-0.433-0.283-0.433-0.39,0-1.28.736-2.408,2.252a10.186,10.186,0,0,0-2,5.176c-0.759.281-1.475,0.584-2.126,0.866A53.008,53.008,0,0,0,307.689,64.194ZM144.95,47.974h25.644a25.819,25.819,0,0,1-25.644,0M178.441,41c-0.419.564-.858,1.109-1.323,1.634h-6.869A2.757,2.757,0,0,0,168.637,41Zm-11.512,0-0.244,1.282A6.254,6.254,0,0,0,165.061,41h1.868Zm-5.086,0a11.14,11.14,0,0,1,4.6,2.432l0.367-1.882a5.2,5.2,0,0,1,3,2.026h6.435A25.81,25.81,0,0,1,172.158,47h-6.029l-0.647-.872-0.33.872H143.385a25.832,25.832,0,0,1-4.087-3.417h2.63a49.482,49.482,0,0,1,8.936-2.569Zm-14.8,0c-1.427.441-2.946,0.982-4.564,1.634h-4.053q-0.693-.788-1.322-1.631ZM133.7,34.8H149.1s11.282-6.21,18.145-1.993l-0.208-1.538s3.487-.346,6.173,3.531h8.636a25.81,25.81,0,0,1-1.569,3.368h-7.839s-2.566-3.531-5.062-2.878l-0.035,1.988s-5.342-5.659-21.258.894H135.265a25.662,25.662,0,0,1-1.57-3.37M150.864,41a25.758,25.758,0,0,1,10.979.008ZM137.1,41q-0.68-.909-1.279-1.884H145.5s15.09-6.14,21.786-.753l0.02-2.026s2.5-.41,4.839,2.779h7.572q-0.6.972-1.279,1.887l-9.8,0a5.33,5.33,0,0,0-1.624-.443L166.929,41h-1.868c-2.433-1.434-7.859-3.168-18.019,0Zm45.935-10.378a25.194,25.194,0,0,1-.835,3.181h-8.892a6.764,6.764,0,0,0-3.374-3.177Zm-16.01,0,0.122,0.99a8.026,8.026,0,0,0-2.529-.992Zm-9.144,0a21.445,21.445,0,0,0-8.463,3.219H133.355a25.586,25.586,0,0,1-.849-3.216Zm-25.85-4.534H154.4s5.381-3.956,10.757-3.5l-0.132-.414s4.278-1.169,7.606,3.918H183.51a25.839,25.839,0,0,1-.279,3.43h-9.949s-1.07-3.841-7.341-4.319l0.279,1.139s-6.237-2.137-13.937,3.181H132.315a25.824,25.824,0,0,1-.281-3.43m0.472,4.534c-0.009-.043-0.018-0.089-0.026-0.133h19.5s7.51-5.233,14.438-3.138L166.109,26.2s5.209,0.516,7.242,4.292h9.715c-0.01.044-.017,0.089-0.028,0.133h-13.1a6.153,6.153,0,0,0-2.955-.373l0.045,0.373h-2.406a17.946,17.946,0,0,0-6.738.008ZM182.937,20.25c0.03,0.144.061,0.287,0.089,0.43H171.054a5.139,5.139,0,0,0-.333-0.43h12.216Zm-13.127,0a11.379,11.379,0,0,1,1.467,1.374h11.916a25.836,25.836,0,0,1,.315,3.509H172.661s-2.463-5.023-7.839-3.731a16.593,16.593,0,0,0-10.142,3.731H132.037a25.836,25.836,0,0,1,.314-3.509h23.8a14.414,14.414,0,0,1,1.623-1.378Zm-13.188,0c-0.108.137-.209,0.277-0.306,0.422h-23.8c0.029-.143.058-0.285,0.089-0.428ZM170.209,3.19H157.117A14.268,14.268,0,0,0,154.7,1.528l1.175,1.662H145.338a25.828,25.828,0,0,1,24.871,0m-26.315.86h12.438L155.781,3.1s2.063,0.471,2.405.952h13.465a25.8,25.8,0,0,1,4.228,3.38H161.887a4.061,4.061,0,0,0-4.009-1s0.206,0.653-.86,1H139.666a25.759,25.759,0,0,1,4.228-3.38m-5.145,4.332h18.467a1.693,1.693,0,0,0,1.125-1.127s1.873-.59,4.414,1.127H176.8a25.9,25.9,0,0,1,2.777,3.64H166.185A5.539,5.539,0,0,0,160.008,9.9l-0.309.515a3.652,3.652,0,0,0-2.01,1.608H135.971a25.828,25.828,0,0,1,2.778-3.64m-3.352,4.6h22.344a6.257,6.257,0,0,1,2.3-1.861l0.157-.381a6.277,6.277,0,0,1,6.3,2.242h13.643a25.459,25.459,0,0,1,1.612,3.368H169s-1.907-3.488-7.068-2.232l-0.221-.473s-2.964.649-4.284,2.708h-23.64a25.5,25.5,0,0,1,1.612-3.37m22.377,7.271c1.433-1.059,3.633-2.3,5.844-2.061l0.208,0.541s2.7-1.088,5.983,1.511Zm-25.164,0a25.284,25.284,0,0,1,.818-2.929h23.957s1.1-1.688,4.672-2.738l0.211,0.465a7.216,7.216,0,0,1,7,2.273h12.852a25.094,25.094,0,0,1,.821,2.93H170.721a8.019,8.019,0,0,0-7.321-2.733l-0.165-.411s-4.347.291-6.613,3.147Z"/>
</svg>
