<svg xmlns="http://www.w3.org/2000/svg" width="32" height="32" viewBox="0 0 32 32">

  <path id="link-floorplans" class="icon-link" fill="#a27e52" d="M27.079,31H4.726A3.727,3.727,0,0,1,1,27.272V4.9A3.9,3.9,0,0,1,4.75,1h22.5A3.767,3.767,0,0,1,31,4.75v22.5A3.918,3.918,0,0,1,27.079,31ZM29,4.875A1.883,1.883,0,0,0,27.125,3H4.875A2.033,2.033,0,0,0,2.988,5.029V27.147a1.863,1.863,0,0,0,1.863,1.864h22.1A2.048,2.048,0,0,0,29,27.125V4.875ZM23.5,21.969H8.5a0.969,0.969,0,0,1,0-1.937h15A0.969,0.969,0,0,1,23.5,21.969Zm0-6H8.5a0.969,0.969,0,0,1,0-1.938h15A0.969,0.969,0,0,1,23.5,15.969Zm0-6H8.5a0.969,0.969,0,0,1,0-1.938h15A0.969,0.969,0,0,1,23.5,9.969Z"/>
</svg>
