<svg xmlns="http://www.w3.org/2000/svg" width="32" height="32" viewBox="0 0 32 32">

  <path id="link-gallery" class="icon-link" fill="#a27e52" d="M27.25,30H4.75A3.8,3.8,0,0,1,1,26.143V10.714A3.8,3.8,0,0,1,4.75,6.857H7.562L8.5,4.929C9,3.92,9.34,3,10.375,3h11.25c1.036,0,1.323.807,1.875,1.929l0.938,1.929H27.25A3.8,3.8,0,0,1,31,10.714V26.143A3.8,3.8,0,0,1,27.25,30ZM29,10.9a1.9,1.9,0,0,0-1.875-1.929H23.5L22.563,7.045c-0.663-1.122-.84-1.929-1.875-1.929H11.312c-1.035,0-1.212.807-1.875,1.929L8.5,8.973H4.875A1.9,1.9,0,0,0,3,10.9V26.08a1.9,1.9,0,0,0,1.875,1.929h22.25A1.9,1.9,0,0,0,29,26.08V10.9ZM16,25.413A7.61,7.61,0,0,1,8.5,17.7,7.609,7.609,0,0,1,16,9.985,7.609,7.609,0,0,1,23.5,17.7,7.609,7.609,0,0,1,16,25.413Zm0-13.375A5.5,5.5,0,0,0,10.5,17.7a5.5,5.5,0,1,0,11,0A5.5,5.5,0,0,0,16,12.038Z"/>
</svg>
