<svg xmlns="http://www.w3.org/2000/svg" width="16" height="16" viewBox="0 0 16 16">

  <path id="topbar-phone" class="icon-topbar" fill="#ffffff" d="M12.614,13a9.58,9.58,0,0,1-6.626-2.956A9.53,9.53,0,0,1,3,3.207l0-.09,0.056-.071a6.517,6.517,0,0,1,.5-0.569A6.309,6.309,0,0,1,5.749,1.049,0.7,0.7,0,0,1,6,1.006a0.991,0.991,0,0,1,.859.429c0.293,0.812.662,1.872,0.93,2.882a1.052,1.052,0,0,1-.281.934l-0.955.606a0.244,0.244,0,0,0-.1.166,0.744,0.744,0,0,0,.156.547,13.792,13.792,0,0,0,1.3,1.522A13.536,13.536,0,0,0,9.426,9.382a0.565,0.565,0,0,0,.711.059l0.608-.959a1.035,1.035,0,0,1,.773-0.3,0.715,0.715,0,0,1,.15.014,13.337,13.337,0,0,1,2.912.939,1.046,1.046,0,0,1,.366,1.106,6.319,6.319,0,0,1-1.426,2.192,6.484,6.484,0,0,1-.571.5l-0.07.055-0.265,0h0Z"/>
</svg>
