<svg xmlns="http://www.w3.org/2000/svg" width="32" height="32" viewBox="0 0 32 32">
  <metadata><?xpacket begin="﻿" id="W5M0MpCehiHzreSzNTczkc9d"?>
<x:xmpmeta xmlns:x="adobe:ns:meta/" x:xmptk="Adobe XMP Core 5.6-c140 79.160451, 2017/05/06-01:08:21        ">
   <rdf:RDF xmlns:rdf="http://www.w3.org/1999/02/22-rdf-syntax-ns#">
      <rdf:Description rdf:about=""/>
   </rdf:RDF>
</x:xmpmeta>
                                                                                                    
                                                                                                    
                                                                                                    
                                                                                                    
                                                                                                    
                                                                                                    
                                                                                                    
                                                                                                    
                                                                                                    
                                                                                                    
                                                                                                    
                                                                                                    
                                                                                                    
                                                                                                    
                                                                                                    
                                                                                                    
                                                                                                    
                                                                                                    
                                                                                                    
                                                                                                    
                           
<?xpacket end="w"?></metadata>
<defs>
    <style>
      .cls-1 {
        fill: #fff;
        fill-rule: evenodd;
      }
    </style>
  </defs>
  <path id="_5" data-name="5" class="cls-1" d="M31.689,31.694a1.047,1.047,0,0,1-1.464,0l-8.292-8.16a13.533,13.533,0,0,1-8.472,2.958A13.354,13.354,0,0,1,0,13.246,13.354,13.354,0,0,1,13.46,0,13.354,13.354,0,0,1,26.92,13.246a13.065,13.065,0,0,1-3.492,8.878l8.26,8.129A1.008,1.008,0,0,1,31.689,31.694ZM24.849,13.246A11.3,11.3,0,0,0,13.46,2.038,11.3,11.3,0,0,0,2.071,13.246,11.3,11.3,0,0,0,13.46,24.454,11.3,11.3,0,0,0,24.849,13.246Zm-6.331,1.165h-4v4a1,1,0,1,1-2,0v-4h-4a1.263,1.263,0,0,1-1-1.267,0.807,0.807,0,0,1,1-.735h4v-4a1,1,0,1,1,2,0v4h4A1,1,0,0,1,18.519,14.411Z"/>
</svg>
