<svg xmlns="http://www.w3.org/2000/svg" width="18" height="12" viewBox="0 0 18 12">
  <path id="quote" class="element-quote" fill="#a27e52" d="M16.9-.006q-6.311,2.865-6.31,7.943a3.913,3.913,0,0,0,1.187,2.878A3.839,3.839,0,0,0,14.582,12a3.341,3.341,0,0,0,2.4-.911,3.026,3.026,0,0,0-.029-4.44,4.074,4.074,0,0,0-2.489-1.107q0-2.109,3.531-3.672Zm-10.623,0Q-0.007,2.859-.007,7.937a3.938,3.938,0,0,0,1.172,2.878A3.792,3.792,0,0,0,3.959,12a3.392,3.392,0,0,0,2.417-.911,3.011,3.011,0,0,0-.014-4.44A4.1,4.1,0,0,0,3.843,5.541q0-2.109,3.56-3.672Z"/>
</svg>
