<svg xmlns="http://www.w3.org/2000/svg" width="18" height="16" viewBox="0 0 18 16">
  <path id="quote" class="quote" fill="#3a3a3a" d="M18.836,2.993q-6.661,3.342-6.661,9.267a4.819,4.819,0,0,0,1.253,3.357A3.873,3.873,0,0,0,16.392,17a3.347,3.347,0,0,0,2.536-1.063,3.789,3.789,0,0,0-.031-5.18A4.125,4.125,0,0,0,16.27,9.465Q16.27,7,20,5.181Zm-11.213,0Q0.993,6.336.993,12.26A4.855,4.855,0,0,0,2.23,15.617,3.828,3.828,0,0,0,5.179,17,3.4,3.4,0,0,0,7.73,15.936a3.768,3.768,0,0,0-.015-5.18A4.152,4.152,0,0,0,5.057,9.465Q5.057,7,8.815,5.181Z"/>
</svg>
